<?xml version="1.0" encoding="UTF-8"?>
<!-- Created with Inkscape (http://www.inkscape.org/) -->
<svg width="32" height="32" version="1.1" viewBox="0 0 32 32" xmlns="http://www.w3.org/2000/svg">
 <rect width="32" height="32" ry="4" stroke-linecap="round" stroke-linejoin="round" stroke-width="2" style="paint-order:stroke fill markers"/>
 <g stroke-linecap="round" stroke-linejoin="round" stroke-width="2">
  <rect x="4" y="24" width="4" height="4" ry="1" fill="#ed2227" style="paint-order:stroke fill markers"/>
  <rect x="9" y="24" width="4" height="4" ry="1" fill="#69bd45" style="paint-order:stroke fill markers"/>
  <rect x="14" y="24" width="4" height="4" ry="1" fill="#3a57a6" style="paint-order:stroke fill markers"/>
  <rect x="14" y="24" width="4" height="4" ry="1" fill="#3a57a6" style="paint-order:stroke fill markers"/>
 </g>
 <g fill="#fff" aria-label="S2">
  <path d="m8.739 20.128q-0.64 0-1.392-0.032-0.736-0.032-1.456-0.096-0.704-0.064-1.264-0.128v-2.064q0.592 0.048 1.184 0.096 0.608 0.048 1.152 0.064t0.912 0.016q0.768 0 1.168-0.048 0.4-0.064 0.592-0.176 0.128-0.112 0.176-0.24 0.064-0.128 0.08-0.304t0.016-0.4q0-0.336-0.048-0.528-0.032-0.208-0.16-0.32-0.112-0.112-0.352-0.16-0.24-0.064-0.624-0.112l-2.256-0.288q-0.656-0.08-1.072-0.32-0.416-0.256-0.656-0.672t-0.336-0.976q-0.096-0.576-0.096-1.28 0-1.088 0.32-1.728 0.32-0.656 0.88-0.992 0.576-0.352 1.328-0.464 0.768-0.112 1.664-0.112 0.64 0 1.328 0.048 0.688 0.032 1.296 0.112 0.608 0.064 1.008 0.16v2.016q-0.4-0.064-0.944-0.096-0.528-0.048-1.104-0.064-0.576-0.032-1.088-0.032-0.624 0-0.992 0.048-0.368 0.032-0.576 0.144-0.224 0.128-0.288 0.336-0.048 0.208-0.048 0.528 0 0.4 0.064 0.624 0.064 0.208 0.288 0.288t0.688 0.144l2.192 0.256q0.448 0.048 0.816 0.16 0.384 0.112 0.688 0.352 0.32 0.24 0.528 0.688 0.112 0.208 0.176 0.512 0.064 0.288 0.112 0.672t0.048 0.864q0 0.944-0.192 1.6-0.192 0.64-0.544 1.024-0.352 0.368-0.848 0.576-0.496 0.192-1.104 0.24-0.592 0.064-1.264 0.064z"/>
  <path d="m14.275 20v-1.52q0-0.912 0.048-1.568t0.208-1.12q0.176-0.464 0.544-0.784 0.368-0.336 1.008-0.608l2.432-0.976q0.464-0.192 0.688-0.336 0.224-0.16 0.288-0.384t0.064-0.624q0-0.496-0.16-0.72-0.16-0.24-0.576-0.288-0.416-0.064-1.168-0.064-0.352 0-0.88 0.032-0.512 0.032-1.104 0.08t-1.168 0.112v-2.016q0.528-0.096 1.2-0.176t1.376-0.128q0.72-0.048 1.328-0.048 0.8 0 1.504 0.112 0.72 0.096 1.264 0.4t0.848 0.912q0.32 0.608 0.32 1.632t-0.224 1.648q-0.208 0.624-0.624 0.992t-1.008 0.608l-2.752 1.072q-0.32 0.128-0.496 0.272-0.16 0.128-0.224 0.352-0.064 0.208-0.064 0.56v0.416h5.392v2.16z" fill="#ff8f00"/>
 </g>
</svg>
